PathFileType        4      (X/Y/Z)      C:\Users\pc\Desktop\IMUTRC\Sujet_04\Sujet_04_velo_80.trc         
DataRate	CameraRate	NumFrames	NumMarkers	Units	OrigDataRate	OrigDataStartFrame	OrigNumFrames
60.0	60.0	4	64	mm	60.0	468	934
Frame#	Time	pHipOrigin			pRightASI			pLeftASI			pRightCSI			pLeftCSI			pRightIschialTub			pLeftIschialTub			pSacrum			pL5SpinalProcess			pL3SpinalProcess			pT12SpinalProcess			pIJ			pT4SpinalProcess			pT8SpinalProcess			pPX			pC7SpinalProcess			pTopOfHead			pRightAuricularis			pLeftAuricularis			pBackOfHead			pRightAcromion			pLeftAcromion			pRightArmLatEpicondyle			pRightArmMedEpicondyle			pLeftArmLatEpicondyle			pLeftArmMedEpicondyle			pRightUlnarStyloid			pRightRadialStyloid			pRightOlecranon			pLeftUlnarStyloid			pLeftRadialStyloid			pLeftOlecranon			pRightTopOfHand			pRightPinky			pRightBallHand			pLeftTopOfHand			pLeftPinky			pLeftBallHand			pRightGreaterTrochanter			pRightKneeLatEpicondyle			pRightKneeMedEpicondyle			pRightPatella			pLeftGreaterTrochanter			pLeftKneeLatEpicondyle			pLeftKneeMedEpicondyle			pLeftPatella			pRightTibialTub			pRightLatMalleolus			pRightMedMalleolus			pLeftTibialTub			pLeftLatMalleolus			pLeftMedMalleolus			pRightHeelFoot			pRightFirstMetatarsal			pRightFifthMetatarsal			pRightPivotFoot			pRightHeelCenter			pRightToe			pLeftHeelFoot			pLeftFirstMetatarsal			pLeftFifthMetatarsal			pLeftPivotFoot			pLeftHeelCenter			pLeftToe			
		X1	Y1	Z1	X2	Y2	Z2	X3	Y3	Z3	X4	Y4	Z4	X5	Y5	Z5	X6	Y6	Z6	X7	Y7	Z7	X8	Y8	Z8	X9	Y9	Z9	X10	Y10	Z10	X11	Y11	Z11	X12	Y12	Z12	X13	Y13	Z13	X14	Y14	Z14	X15	Y15	Z15	X16	Y16	Z16	X17	Y17	Z17	X18	Y18	Z18	X19	Y19	Z19	X20	Y20	Z20	X21	Y21	Z21	X22	Y22	Z22	X23	Y23	Z23	X24	Y24	Z24	X25	Y25	Z25	X26	Y26	Z26	X27	Y27	Z27	X28	Y28	Z28	X29	Y29	Z29	X30	Y30	Z30	X31	Y31	Z31	X32	Y32	Z32	X33	Y33	Z33	X34	Y34	Z34	X35	Y35	Z35	X36	Y36	Z36	X37	Y37	Z37	X38	Y38	Z38	X39	Y39	Z39	X40	Y40	Z40	X41	Y41	Z41	X42	Y42	Z42	X43	Y43	Z43	X44	Y44	Z44	X45	Y45	Z45	X46	Y46	Z46	X47	Y47	Z47	X48	Y48	Z48	X49	Y49	Z49	X50	Y50	Z50	X51	Y51	Z51	X52	Y52	Z52	X53	Y53	Z53	X54	Y54	Z54	X55	Y55	Z55	X56	Y56	Z56	X57	Y57	Z57	X58	Y58	Z58	X59	Y59	Z59	X60	Y60	Z60	X61	Y61	Z61	X62	Y62	Z62	X63	Y63	Z63	X64	Y64	Z64	
468	7.783	4.919907857114186E-14	1249.99598	5.863317863948313E-14	82.34870504654319	1317.6805	164.05203882254665	103.32824423736437	1357.79412	-126.39114609621225	52.457128472621726	1401.60698	146.502920014829	69.64866226763235	1434.43773	-91.26437475641073	-75.86439975998299	1195.60561	47.888039018548156	-67.26862581831742	1212.02098	-70.99560775078754	-65.60509507708004	1287.79758	0.49644932649873397	-1.7261568834790149	1382.99519	16.916345224454364	68.1792486532093	1480.62042	36.20204281499136	135.001437896143	1567.95714	54.1512947494219	399.5461556237497	1585.23952	95.8813321171186	288.2386917663755	1695.92769	88.85099410576245	212.0452981295635	1644.54294	72.50249012171501	298.4367669809897	1510.73453	73.57845150631387	336.03743392168565	1725.8106	99.14592001352739	573.4751557669717	1804.93964	136.9863933516375	486.4404990933864	1747.77483	190.62564273487558	502.2096667076814	1761.18458	54.932973084643976	465.28492218086	1799.91098	123.86954556034789	307.1705925748034	1663.03914	283.2536949806493	365.393330981774	1713.03667	-89.14488765055984	323.15618928837864	1343.92197	294.2116186030574	299.23301425116705	1337.73731	231.89049620532828	404.7511751385695	1390.04686	-82.25522807604565	366.8989785226687	1385.42281	-27.102928018752635	437.3484105123522	1120.52262	215.74723515211076	483.95417940201736	1145.43468	225.60956009379225	288.6437087659545	1329.64522	260.54475322429226	454.12212323259746	1152.13955	24.960700483239265	504.8711665664048	1168.95953	30.13916470580037	361.73434395754794	1380.45196	-59.51506430667973	652.9687876090867	1065.43864	310.2249300905479	560.4267114400109	1048.09845	263.15259585752017	500.1681377404422	1095.26375	223.17152723461612	670.7983948328629	1046.88464	14.04952845816166	567.0678650569148	1053.99412	30.616360056767576	509.2497696049014	1117.05458	42.461188974635746	5.9022052797886175	1218.09005	177.79544881467368	268.9840731525393	872.7314	207.17136192303303	279.5066030878128	865.44853	123.94492194604155	309.88346619584763	900.01329	164.55282538093348	29.827310764408878	1246.64355	-175.8593081638065	397.94047035172787	1014.6319	-172.29064830436414	405.0483247809123	1014.9787	-88.4653822662535	423.9948836240448	1056.30614	-129.64029522840337	299.09484555475154	812.79217	165.0038718924103	1.013370754265459	526.96816	95.80540462681844	19.573385843837276	530.6674	32.318829961308516	445.52172240664976	971.85945	-132.31098263245048	267.6622526352046	593.95906	-162.72356087744276	272.63030350543727	592.10944	-96.64519047607932	-67.48722255730311	471.65297	41.236028478162616	93.03443473195745	392.98634	19.87327003916696	76.92876567526484	382.00423	102.20097971952912	106.13007286481856	376.16637	62.45659057660456	-29.31982954598999	453.27238	46.257359437277586	184.8833934874187	332.2957	72.05441658809005	214.35626048876878	511.13079	-123.20080009543605	385.2093269404056	490.55377	-70.38487515613986	389.64587222008174	480.95887	-154.38993114685917	411.08214256493955	482.40389	-109.59991754825475	256.7117457582612	507.25815	-120.56188157749887	500.54769880887716	468.87855	-103.33173168017069	
469	7.8	4.919907857114186E-14	1249.99598	5.863317863948313E-14	82.30290343919742	1318.83651	163.6377556864374	103.05950979865881	1357.27392	-127.07109467776354	52.20976676883335	1402.53179	145.5786799553212	69.25269572892886	1434.03312	-92.3657307190437	-75.69287620285226	1195.72121	48.272294508358286	-67.20856806058245	1211.44298	-70.74419202785867	-65.67227707978742	1287.68198	0.32646409622202555	-1.9877606493360949	1383.11079	16.154973810695353	67.80617908795648	1480.90942	35.3078316343511	134.55406974365485	1568.30394	53.168522403280974	399.01888764501894	1585.64412	95.34287944639888	287.6742642359287	1696.27449	88.26825640578603	211.50224333403395	1644.94755	71.67546094378211	297.9751426781123	1511.13914	72.75854657335337	335.4658821462666	1726.21521	98.64461280620316	572.7137843532128	1805.40204	137.24799711749458	485.54474958589213	1748.17944	190.54727480761088	501.83965970781605	1761.58918	54.941635656470396	464.59631102748233	1800.31559	123.76827299918813	306.36899781137254	1663.21254	282.5681540531035	364.9546113127918	1713.67247	-89.75765422940374	323.52159416343414	1344.32658	292.8486588745674	299.76840435649933	1338.14191	230.46035447413087	404.8824753460285	1390.68267	-82.81811727963836	367.26744596311175	1386.11642	-27.563013994776014	437.60388791486594	1120.81162	214.70287314925693	484.2167874773796	1145.66588	224.4837752587307	289.05339100982235	1330.04983	259.1446403719624	454.5918632342002	1152.60196	23.812003353838207	505.3337899834796	1169.47973	29.071891641175426	361.9842277814989	1381.08777	-60.026551896487774	653.1586213357471	1065.84324	309.46202034993485	560.6608161076075	1048.44526	262.3525253326229	500.46077469467195	1095.55275	222.1714502610191	671.3108879647443	1047.63605	12.412241944971527	567.6475401915038	1054.62992	29.14905877385422	509.7709112202889	1117.51699	41.193908228742686	6.946567282642434	1220.17087	178.0509262171875	283.23509069509726	885.62094	210.756718520668	293.8319268780505	877.81786	127.61883328130104	322.98578660900455	914.00104	167.66844197696565	28.11725633039299	1244.33152	-176.00891854079512	385.0427520842044	995.4421	-173.99344311754385	393.01633356989174	996.19351	-90.2155093531886	413.49277480640353	1036.19153	-131.995073195457	311.1512797265212	825.0459	167.41257482597953	3.1875792717657134	550.60861	95.33918585957568	21.547580252193328	554.71245	31.794085335308687	434.9025465506055	953.99906	-134.26571952546348	269.0160157745194	570.72322	-165.0667567435906	274.1097821666609	568.9314	-99.01842164897076	-66.96301837652818	497.37425	40.87162148473618	91.4953569819713	415.18178	17.769306089761564	75.7525630197272	404.02626	100.16979011882556	104.52382077256948	397.72599	60.18263496904636	-29.24857943582161	478.06884	45.4430480828799	182.37119741687098	352.00571	68.88065622132874	216.07290638297656	487.60594	-125.47122804075815	386.75192592475173	468.12714	-71.60381685363575	391.71422137250124	458.06983	-155.5218487731401	412.85479862561795	459.86165	-110.63462429296081	258.48844941020394	483.9645	-122.5808937998921	502.39618535576875	446.79871	-103.82644742730304	
470	7.817	4.919907857114186E-14	1249.99598	5.863317863948313E-14	82.34564890903178	1319.87692	163.1491727305244	102.91649730973819	1356.58031	-127.78107090561397	52.213828448418255	1403.4566	144.5943757102024	69.10813725270982	1433.51292	-93.52713801153554	-75.6399426900897	1195.95241	48.605140723939314	-67.19278890422808	1210.98057	-70.45560909276938	-65.6951817136825	1287.62418	0.11932574210543123	-2.042224828508248	1383.22639	15.370683674720725	67.69165591848102	1481.08282	34.27213986376812	134.48381751511556	1568.47734	52.095669848413685	398.8173352090208	1585.75972	94.83291609512432	287.53124408656373	1696.44789	87.55828660581169	211.4177567038704	1645.17875	70.76547060678745	297.80209488244816	1511.31254	71.9228548235941	335.2643361381445	1726.38861	98.13465711537297	572.2994999845353	1805.80665	137.29381281316086	485.02613775111166	1748.52624	190.3788214763121	501.7281939084203	1761.82038	54.808795889589135	464.2105248712626	1800.54679	123.48835263592522	305.98167975617497	1663.21254	281.8368038577676	365.130188889063	1713.78808	-90.35769655683636	324.07988890266154	1344.55778	291.62565549748655	300.4966907538795	1338.43092	229.17017675478706	405.2580682640122	1390.85607	-83.35964783663442	367.71735155665135	1386.28982	-28.015982153703078	437.70362857704777	1120.75382	213.56283216380615	484.41220712215846	1145.49248	223.18799753294806	289.64884530076563	1330.33883	257.96592202413825	455.06873390865144	1152.54416	22.58188339222943	505.81065423005475	1169.42193	27.841764019122138	362.3598271273587	1381.31897	-60.56807479303936	653.3026393667412	1065.90104	308.2848262406443	560.7534325248171	1048.38746	261.2939148398243	500.56051535685384	1095.37935	221.0314092755683	671.8819069553831	1047.75165	10.574941322637244	568.2043030317532	1054.62992	27.474625564700318	510.2620239568088	1117.45919	39.800919621385134	7.902360459551147	1222.7141	178.3807086348127	297.40927863724454	900.07109	215.68926211831467	308.1175741917175	891.2854	132.6842089853846	335.8998257106756	929.2604	171.99840703869663	26.281494034912697	1241.7883	-176.12850003891626	369.91230586829977	974.86508	-175.02999739389224	378.75159389429336	976.02109	-91.29940479630508	400.83934678426823	1014.5163	-133.67648118539904	323.58943837492563	838.91805	171.08550236793042	8.444996422576175	573.55545	96.20941917631546	26.523545140763	578.2951	32.59867497619512	421.61346263662006	934.75146	-135.71555905629208	266.5099524951911	546.96717	-166.43477603329464	272.099426088218	545.17535	-100.42512596149263	-63.17696418821602	522.05511	42.14648391200587	93.53673339303472	437.03041	17.414546694038442	78.23825144576739	425.81709	99.89493697722112	106.57944567357767	419.17002	59.66501458801892	-25.79690336206838	502.0561	46.3194141908391	183.6766291682331	371.94692	67.55891129626349	213.84829413332073	463.84989	-126.77358956628832	384.4687878163389	444.48669	-72.7061642700217	389.46823638792824	434.25598	-156.57991882071377	410.60879955272446	436.1634	-111.69269557310287	256.2124355467634	460.20845	-123.7646717089302	500.09879232953506	423.10046	-104.7659415188291	
471	7.833	4.919907857114186E-14	1249.99598	5.863317863948313E-14	82.34411058217779	1320.91733	162.6977352380069	103.01776221045354	1355.7133	-128.46967563111556	52.217890128003155	1404.38141	143.61007146508356	69.17072479105178	1432.87711	-94.71145636579857	-75.66843966997928	1196.29922	48.930862694547955	-67.21416163914526	1210.57597	-70.21131761481291	-65.7109685304813	1287.68198	-0.16925076510775483	-2.0152661754726715	1383.28419	14.593524211594588	67.7842723356905	1481.19842	33.21352937096953	134.53215656351273	1568.65074	51.07421247945498	398.7715259412306	1585.81753	94.41863938689113	287.54395424965446	1696.56349	86.94398812798987	211.41468647803848	1645.29435	69.86260328219689	297.8290535354837	1511.42814	71.14569536046793	335.26992971670734	1726.38861	97.60178270232723	572.0109311377664	1806.26905	137.30959320208353	484.7075335975993	1748.87305	190.2688863433259	501.7353181533927	1761.99378	54.727365396937046	463.9876061282233	1800.72019	123.22268842305161	305.83866083937824	1663.15474	281.12681996947276	365.59433654467125	1713.61467	-90.97353336151215	324.8010587155137	1344.73118	290.4169018429189	301.17357677004327	1338.60432	227.99856856361487	405.6708207337119	1390.74047	-83.85689336437378	368.1672571501909	1386.23202	-28.46895031263014	437.6405082539253	1120.46482	212.4085426884106	484.4518900266054	1145.14568	221.79654082456835	290.35575253535245	1330.57003	256.92002812230646	455.43414644415145	1152.19735	21.218917235863273	506.16894128801397	1169.01733	26.56024244372867	362.772571936614	1381.26117	-61.06531389290265	653.3423222711881	1065.66984	306.8933695322646	560.7345895705068	1048.09845	260.1024722405889	500.50451161825936	1095.03255	219.79569573539666	672.2971815452454	1047.52045	8.641968145582098	568.642489915955	1054.28312	25.748784313885665	510.67883810609345	1117.05458	38.31936984852695	8.69530673947608	1225.60413	178.69624379506146	311.4007647581483	915.96626	221.30327853604618	322.2205120236964	905.96676	138.43106393742897	348.5125652862905	945.84918	176.9584420741594	24.275732420835155	1239.18727	-176.18090076689836	352.6234238633731	953.59446	-175.31175762835306	362.3798341317782	955.15507	-91.7470885814576	386.0788999077845	991.91626	-134.72169160569774	336.3706389422838	854.11961	175.52691914073665	15.985550449231205	595.86648	98.18201399776177	33.775537981093706	601.35754	34.587043758688026	406.27587040615424	914.40564	-136.72920227086928	260.6825218958155	522.97992	-167.35487906484124	266.9305636750321	521.1303	-101.36966552591218	-56.63341690932617	546.04236	44.72930910381298	98.6984703286799	458.87904	18.4405308394307	83.88145475279758	447.66572	101.04509065722382	111.79258422300754	440.72965	60.57241511691913	-19.469164669565977	525.46534	48.555143444552044	188.22099863279288	392.40834	67.66930386565386	207.9765797372568	440.15164	-127.65654713443944	378.5741687863798	419.97923	-73.79626019228942	383.3664790038526	409.69072	-157.64711010908638	404.63275003011324	411.54034	-112.78991574034296	250.3478453956719	436.3368	-124.72905976973351	494.09271392805636	398.015	-105.98886954753362	
